<?xml version="1.0" encoding="UTF-8"?>
<svg width="284px" height="73px" viewBox="0 0 284 73" version="1.1" xmlns="http://www.w3.org/2000/svg" xmlns:xlink="http://www.w3.org/1999/xlink">
    <title>Group 2 Copy 4</title>
    <g id="design-system" stroke="none" stroke-width="1" fill="none" fill-rule="evenodd">
        <g id="Group-2-Copy-4" fill-rule="nonzero">
            <g id="M-SAVE" transform="translate(94.321272, 12.067819)">
                <path d="M32.1315594,3.27803482e-05 L28.0361466,3.27803482e-05 C27.9173834,3.27803482e-05 27.8144859,0.0593979907 27.7550879,0.162295503 C23.9127394,6.81578831 20.0703909,13.4692811 16.2280424,20.1228067 C12.3857267,13.4692811 8.54337822,6.81578831 4.70102972,0.162295503 C4.64159895,0.0594307711 4.53873421,3.27803482e-05 4.41993823,3.27803482e-05 L0.324558226,3.27803482e-05 C0.134432207,3.27803482e-05 0,0.134464988 0,0.324591007 L0,22.7192725 C0,22.9093658 0.134432207,23.0438308 0.324558226,23.0438308 L2.59646581,23.0438308 C2.78659183,23.0438308 2.92102404,22.9093658 2.92102404,22.7192725 L2.92102404,2.9210896 C6.76337254,9.57461519 10.605721,16.228108 14.4480695,22.8816008 C14.5075003,22.9844328 14.610365,23.0438308 14.7291282,23.0438308 L17.7269239,23.0438308 C17.8456871,23.0438308 17.9485846,22.9844328 18.0079826,22.8816008 C21.8503311,16.2280752 25.6926796,9.57458241 29.5350281,2.9210896 L29.5350281,22.7192725 C29.5350281,22.9093658 29.6694603,23.0438308 29.8595863,23.0438308 L32.1315266,23.0438308 C32.3216199,23.0438308 32.4560521,22.9093658 32.4560521,22.7192725 L32.4560521,0.324591007 C32.4560521,0.134464988 32.3216527,3.27803482e-05 32.1315594,3.27803482e-05 Z" id="Path" fill="#FFFFFF"></path>
                <path d="M56.0054527,12.983673 C56.1955459,12.983673 56.3299781,12.8492736 56.3299781,12.6591476 L56.3299781,10.3872072 C56.3299781,10.1970812 56.1955459,10.062649 56.0054527,10.062649 L42.6984998,10.062649 C42.5083738,10.062649 42.3739088,10.1970812 42.3739088,10.3872072 L42.3739088,12.6591476 C42.3739088,12.8492408 42.5083738,12.983673 42.6984998,12.983673 L56.0054527,12.983673 Z" id="Path" fill="#00D200"></path>
                <path d="M85.051959,10.0614034 L72.7186808,10.0614034 C70.6273274,10.0614034 69.1485403,8.58258351 69.1485403,6.49123009 C69.1485403,4.39984388 70.6273602,2.9210896 72.7186808,2.9210896 L85.051959,2.9210896 C87.0075034,2.9210896 88.4467574,4.24498952 88.6097413,6.19371565 C88.624558,6.37089343 88.7553844,6.49126287 88.933185,6.49126287 L91.2100752,6.49126287 C91.3004178,6.49126287 91.3833849,6.45559785 91.4455692,6.39010271 C91.507688,6.3245748 91.5389604,6.2398376 91.5342073,6.14962608 C91.3423111,2.50910618 88.6975271,6.55606964e-05 85.051959,6.55606964e-05 L72.7186808,6.55606964e-05 C68.9161932,6.55606964e-05 66.2274508,2.68880805 66.2274508,6.49129565 C66.2274508,10.2937505 68.9161932,12.9825257 72.7186808,12.9825257 L85.051959,12.9825257 C87.1433124,12.9825257 88.6221323,14.4613128 88.6221323,16.552699 C88.6221323,18.6440524 87.1433124,20.1228723 85.051959,20.1228723 L72.7186808,20.1228723 C70.7631364,20.1228723 69.3238824,18.7989724 69.1609313,16.8502134 C69.1460818,16.6730357 69.0152882,16.552699 68.8374876,16.552699 L66.5605646,16.552699 C66.470222,16.552699 66.3872877,16.588364 66.3251034,16.6538919 C66.2629519,16.7194199 66.2317122,16.8041571 66.2364653,16.8943358 C66.4283615,20.5348557 69.0731455,23.0438963 72.7187136,23.0438963 L85.0519918,23.0438963 C88.8544794,23.0438963 91.5432546,20.3551866 91.5432546,16.5526662 C91.5432546,12.7501786 88.8544794,10.0614034 85.051959,10.0614034 Z" id="Path" fill="#FFFFFF"></path>
                <path d="M125.374443,22.5794316 C121.809154,15.1145268 118.243832,7.64958925 114.678478,0.184717261 C114.623046,0.0686748292 114.514216,6.55606964e-05 114.385618,6.55606964e-05 L111.11096,6.55606964e-05 C110.98233,6.55606964e-05 110.873532,0.0686748292 110.8181,0.184717261 C107.252746,7.64958925 103.687424,15.1145268 100.122135,22.5794316 C100.072997,22.6822307 100.079652,22.7960441 100.140426,22.8924183 C100.201234,22.9888253 100.301017,23.0438635 100.414962,23.0438635 L102.932722,23.0438635 C103.061352,23.0438635 103.17015,22.9752543 103.225614,22.859179 C103.9971,21.2438291 104.768618,19.6285118 105.540104,18.0131619 L119.956442,18.0131619 C120.727927,19.6285118 121.499446,21.2438291 122.270931,22.859179 C122.326395,22.9752543 122.435193,23.0438635 122.563823,23.0438635 L125.081616,23.0438635 C125.195561,23.0438635 125.295377,22.9888253 125.356152,22.8924183 C125.416927,22.7960441 125.423581,22.6822307 125.374443,22.5794316 Z M106.935268,15.092105 C108.872914,11.0351108 110.810594,6.97808382 112.748273,2.9210896 C114.685985,6.97808382 116.623664,11.035078 118.56131,15.092105 C114.685985,15.092105 110.810594,15.092105 106.935268,15.092105 Z" id="Shape" fill="#FFFFFF"></path>
                <path d="M159.219105,0.151477988 C159.15833,0.0551037651 159.058514,3.27803482e-05 158.944569,3.27803482e-05 L156.426776,3.27803482e-05 C156.298146,3.27803482e-05 156.189348,0.0686420489 156.133884,0.184684481 C152.959697,6.83076893 149.785478,13.4767878 146.611225,20.1228067 C143.437006,13.4767878 140.262787,6.83076893 137.088567,0.184717261 C137.033103,0.0686748292 136.924305,3.27803482e-05 136.795675,3.27803482e-05 L134.277915,3.27803482e-05 C134.16397,3.27803482e-05 134.064187,0.0551037651 134.003379,0.151510769 C133.942604,0.247917773 133.93595,0.36166558 133.985088,0.464530313 C137.550377,7.92943508 141.115731,15.3943071 144.681086,22.8592118 C144.736517,22.975287 144.845315,23.0438963 144.973945,23.0438963 L148.248604,23.0438963 C148.377234,23.0438963 148.486032,22.975287 148.541463,22.8592118 C152.106785,15.3943071 155.67214,7.92943508 159.237429,0.464530313 C159.286534,0.3616328 159.279879,0.247884992 159.219105,0.151477988 Z" id="Path" fill="#FFFFFF"></path>
                <path d="M186.966129,2.9210896 C187.156223,2.9210896 187.290655,2.78662461 187.290655,2.59649859 L187.290655,0.324558226 C187.290655,0.134432207 187.156223,0 186.966129,0 L168.141588,0 C168.05436,0 167.973753,0.0333703943 167.912093,0.0950630094 C167.850401,0.156755625 167.81703,0.23732972 167.81703,0.324558226 L167.81703,22.7192397 C167.81703,22.806501 167.850401,22.8870751 167.912093,22.948735 C167.973753,23.0104276 168.05436,23.043798 168.141588,23.043798 L186.966129,23.043798 C187.156223,23.043798 187.290655,22.909333 187.290655,22.7192397 L187.290655,20.4472994 C187.290655,20.2571734 187.156223,20.1227412 186.966129,20.1227412 L170.738054,20.1227412 L170.738054,12.9823946 L186.966129,12.9823946 C187.156223,12.9823946 187.290655,12.8479296 187.290655,12.6578364 L187.290655,10.385896 C187.290655,10.19577 187.156223,10.0613378 186.966129,10.0613378 L170.738054,10.0613378 L170.738054,2.92102404 C176.147435,2.9210896 181.556782,2.9210896 186.966129,2.9210896 Z" id="Path" fill="#FFFFFF"></path>
            </g>
            <g id="powered-by-GYALA" transform="translate(154.011802, 43.917773)" fill="#FFFFFF">
                <path d="M0.880203046,7.07096447 C0.880203046,7.50128596 0.938883249,7.90960237 1.05624365,8.29591371 C1.17360406,8.68222504 1.34230964,9.01963621 1.56236041,9.30814721 C1.78241117,9.59665821 2.0513621,9.826489 2.3692132,9.99763959 C2.6870643,10.1687902 3.04648054,10.2543655 3.44746193,10.2543655 C3.89734349,10.2543655 4.29098985,10.1639002 4.62840102,9.98296954 C4.96581218,9.80203892 5.24209814,9.55509306 5.45725888,9.24213198 C5.67241963,8.9291709 5.82890017,8.56486464 5.92670051,8.1492132 C6.02450085,7.73356176 6.06362098,7.28612521 6.04406091,6.80690355 C6.04406091,6.3276819 5.97804569,5.90469543 5.84601523,5.53794416 C5.71398477,5.17119289 5.53060914,4.86067682 5.29588832,4.60639594 C5.06116751,4.35211506 4.78732657,4.15895939 4.47436548,4.02692893 C4.1614044,3.89489848 3.81910321,3.82888325 3.44746193,3.82888325 C3.03670051,3.82888325 2.66994924,3.91201354 2.34720812,4.07827411 C2.02446701,4.24453469 1.75551607,4.47192047 1.54035533,4.76043147 C1.32519459,5.04894247 1.16137902,5.39124365 1.04890863,5.78733503 C0.93643824,6.1834264 0.880203046,6.61130288 0.880203046,7.07096447 Z M0.880203046,13.8338579 L0,13.8338579 L0,3.24208122 L0.880203046,3.24208122 L0.880203046,4.57705584 L0.909543147,4.57705584 C1.03668359,4.33255499 1.20049915,4.11250423 1.40098985,3.91690355 C1.60148054,3.72130288 1.8215313,3.55993232 2.06114213,3.43279188 C2.30075296,3.30565144 2.54769882,3.2078511 2.8019797,3.13939086 C3.05626058,3.07093063 3.30565144,3.03670051 3.55015228,3.03670051 C4.16629442,3.03670051 4.68952623,3.13939086 5.11984772,3.34477157 C5.5501692,3.55015228 5.90469543,3.83132826 6.1834264,4.18829949 C6.46215736,4.54527073 6.66509306,4.96825719 6.7922335,5.45725888 C6.91937394,5.94626058 6.98294416,6.46949239 6.98294416,7.02695431 C6.98294416,7.55507614 6.91448393,8.0636379 6.77756345,8.55263959 C6.64064298,9.04164129 6.43281726,9.46951777 6.15408629,9.83626904 C5.87535533,10.2030203 5.52327411,10.4964213 5.09784264,10.7164721 C4.67241117,10.9365228 4.17118443,11.0465482 3.59416244,11.0465482 C3.05626058,11.0465482 2.54036379,10.9267428 2.04647208,10.687132 C1.55258037,10.4475212 1.16382403,10.0929949 0.880203046,9.6235533 L0.880203046,13.8338579 Z" id="Shape"></path>
                <path d="M11.8827411,11.0465482 C11.3937394,11.0367682 10.9365228,10.9487479 10.5110914,10.7824873 C10.0856599,10.6162267 9.71401861,10.3668359 9.39616751,10.0343147 C9.07831641,9.70179357 8.82648054,9.28614213 8.6406599,8.78736041 C8.45483926,8.28857868 8.36192893,7.70666667 8.36192893,7.04162437 C8.36192893,6.48416244 8.43527919,5.96337563 8.5819797,5.47926396 C8.7286802,4.99515228 8.94873096,4.57216582 9.24213198,4.21030457 C9.53553299,3.84844332 9.90228426,3.56237733 10.3423858,3.3521066 C10.7824873,3.14183587 11.2959391,3.03670051 11.8827411,3.03670051 C12.4793232,3.03670051 12.997665,3.14183587 13.4377665,3.3521066 C13.877868,3.56237733 14.2446193,3.84599831 14.5380203,4.20296954 C14.8314213,4.55994078 15.0490271,4.98292724 15.1908376,5.47192893 C15.3326481,5.96093063 15.4035533,6.48416244 15.4035533,7.04162437 C15.4035533,7.64798646 15.320423,8.19566836 15.1541624,8.68467005 C14.9879019,9.17367174 14.750736,9.5942132 14.442665,9.94629442 C14.1345939,10.2983756 13.7629526,10.5697716 13.3277411,10.7604822 C12.8925296,10.9511929 12.4108629,11.0465482 11.8827411,11.0465482 Z M14.4646701,7.04162437 C14.4646701,6.59174281 14.4157699,6.17120135 14.3179695,5.78 C14.2201692,5.38879865 14.0685787,5.04894247 13.863198,4.76043147 C13.6578173,4.47192047 13.3937563,4.24453469 13.0710152,4.07827411 C12.7482741,3.91201354 12.3521827,3.82888325 11.8827411,3.82888325 C11.4230795,3.82888325 11.0294332,3.91934856 10.701802,4.10027919 C10.3741709,4.28120981 10.107665,4.52082064 9.90228426,4.81911168 C9.69690355,5.11740271 9.54531303,5.45970389 9.44751269,5.84601523 C9.34971235,6.23232657 9.30081218,6.63086294 9.30081218,7.04162437 C9.30081218,7.51106599 9.35704738,7.94383249 9.46951777,8.33992386 C9.58198816,8.73601523 9.74580372,9.0758714 9.96096447,9.35949239 C10.1761252,9.64311337 10.4450761,9.86316413 10.7678173,10.0196447 C11.0905584,10.1761252 11.4621997,10.2543655 11.8827411,10.2543655 C12.3424027,10.2543655 12.7360491,10.1639002 13.0636802,9.98296954 C13.3913113,9.80203892 13.6578173,9.55998308 13.863198,9.25680203 C14.0685787,8.95362098 14.2201692,8.6113198 14.3179695,8.22989848 C14.4157699,7.84847716 14.4646701,7.45238579 14.4646701,7.04162437 Z" id="Shape"></path>
                <polygon id="Path" points="23.4427411 9.66756345 25.437868 3.24208122 26.3327411 3.24208122 23.8681726 10.8411675 22.9292893 10.8411675 21.2715736 4.45969543 21.2422335 4.45969543 19.5551777 10.8411675 18.498934 10.8411675 16.181066 3.24208122 17.061269 3.24208122 19.0270558 9.72624365 20.7874619 3.24208122 21.7703553 3.24208122"></polygon>
                <path d="M33.1103046,6.51350254 C33.1103046,6.14186125 33.0589594,5.79222504 32.956269,5.46459391 C32.8535787,5.13696277 32.7019882,4.85334179 32.5014975,4.61373096 C32.3010068,4.37412014 32.0491709,4.18340948 31.7459898,4.04159898 C31.4428088,3.89978849 31.0956176,3.82888325 30.7044162,3.82888325 C30.3132149,3.82888325 29.9684687,3.9022335 29.6701777,4.04893401 C29.3718866,4.19563452 29.1176058,4.39123519 28.907335,4.63573604 C28.6970643,4.88023689 28.5283587,5.16385787 28.4012183,5.48659898 C28.2740778,5.8093401 28.1909475,6.15164129 28.1518274,6.51350254 L33.1103046,6.51350254 Z M28.1518274,7.24700508 C28.1518274,7.6577665 28.2056176,8.04652284 28.313198,8.41327411 C28.4207783,8.78002538 28.5797039,9.09787648 28.7899746,9.36682741 C29.0002453,9.63577834 29.2667513,9.85093909 29.5894924,10.0123096 C29.9122335,10.1736802 30.2838748,10.2543655 30.7044162,10.2543655 C31.2814382,10.2543655 31.7753299,10.102775 32.1860914,9.79959391 C32.5968528,9.49641286 32.8706937,9.06609137 33.0076142,8.50862944 L33.9905076,8.50862944 C33.8829272,8.87049069 33.7411168,9.20545685 33.5650761,9.51352792 C33.3890355,9.82159898 33.1689848,10.0905499 32.9049239,10.3203807 C32.6408629,10.5502115 32.3279019,10.7286971 31.9660406,10.8558376 C31.6041794,10.982978 31.1836379,11.0465482 30.7044162,11.0465482 C30.0980541,11.0465482 29.5748223,10.9438579 29.1347208,10.7384772 C28.6946193,10.5330964 28.332758,10.2519205 28.0491371,9.89494924 C27.7655161,9.537978 27.5552453,9.11743655 27.4183249,8.63332487 C27.2814044,8.1492132 27.2129442,7.6284264 27.2129442,7.07096447 C27.2129442,6.51350254 27.2936294,5.99027073 27.455,5.50126904 C27.6163706,5.01226734 27.8462014,4.58439086 28.1444924,4.21763959 C28.4427834,3.85088832 28.8070897,3.56237733 29.2374112,3.3521066 C29.6677327,3.14183587 30.1567343,3.03670051 30.7044162,3.03670051 C31.7508799,3.03670051 32.5724027,3.39611675 33.1689848,4.11494924 C33.7655668,4.83378173 34.0589679,5.87780034 34.0491878,7.24700508 L28.1518274,7.24700508 Z" id="Shape"></path>
                <path d="M36.689797,10.8411675 L35.8095939,10.8411675 L35.8095939,3.24208122 L36.689797,3.24208122 L36.689797,4.66507614 L36.7191371,4.66507614 C36.9636379,4.05871404 37.279044,3.63572758 37.6653553,3.39611675 C38.0516667,3.15650592 38.5626734,3.03670051 39.1983756,3.03670051 L39.1983756,3.99025381 C38.6995939,3.98047377 38.2888325,4.05871404 37.9660914,4.22497462 C37.6433503,4.39123519 37.3866244,4.61617597 37.1959137,4.89979695 C37.005203,5.18341794 36.8731726,5.51838409 36.7998223,5.90469543 C36.7264721,6.29100677 36.689797,6.69443316 36.689797,7.11497462 L36.689797,10.8411675 Z" id="Path"></path>
                <path d="M46.1519797,6.51350254 C46.1519797,6.14186125 46.1006345,5.79222504 45.9979442,5.46459391 C45.8952538,5.13696277 45.7436633,4.85334179 45.5431726,4.61373096 C45.3426819,4.37412014 45.090846,4.18340948 44.787665,4.04159898 C44.4844839,3.89978849 44.1372927,3.82888325 43.7460914,3.82888325 C43.35489,3.82888325 43.0101438,3.9022335 42.7118528,4.04893401 C42.4135618,4.19563452 42.1592809,4.39123519 41.9490102,4.63573604 C41.7387394,4.88023689 41.5700338,5.16385787 41.4428934,5.48659898 C41.315753,5.8093401 41.2326227,6.15164129 41.1935025,6.51350254 L46.1519797,6.51350254 Z M41.1935025,7.24700508 C41.1935025,7.6577665 41.2472927,8.04652284 41.3548731,8.41327411 C41.4624535,8.78002538 41.621379,9.09787648 41.8316497,9.36682741 C42.0419205,9.63577834 42.3084264,9.85093909 42.6311675,10.0123096 C42.9539086,10.1736802 43.3255499,10.2543655 43.7460914,10.2543655 C44.3231134,10.2543655 44.8170051,10.102775 45.2277665,9.79959391 C45.6385279,9.49641286 45.9123689,9.06609137 46.0492893,8.50862944 L47.0321827,8.50862944 C46.9246024,8.87049069 46.7827919,9.20545685 46.6067513,9.51352792 C46.4307107,9.82159898 46.2106599,10.0905499 45.946599,10.3203807 C45.6825381,10.5502115 45.369577,10.7286971 45.0077157,10.8558376 C44.6458545,10.982978 44.225313,11.0465482 43.7460914,11.0465482 C43.1397293,11.0465482 42.6164975,10.9438579 42.1763959,10.7384772 C41.7362944,10.5330964 41.3744332,10.2519205 41.0908122,9.89494924 C40.8071912,9.537978 40.5969205,9.11743655 40.46,8.63332487 C40.3230795,8.1492132 40.2546193,7.6284264 40.2546193,7.07096447 C40.2546193,6.51350254 40.3353046,5.99027073 40.4966751,5.50126904 C40.6580457,5.01226734 40.8878765,4.58439086 41.1861675,4.21763959 C41.4844585,3.85088832 41.8487648,3.56237733 42.2790863,3.3521066 C42.7094078,3.14183587 43.1984095,3.03670051 43.7460914,3.03670051 C44.792555,3.03670051 45.6140778,3.39611675 46.2106599,4.11494924 C46.807242,4.83378173 47.100643,5.87780034 47.0908629,7.24700508 L41.1935025,7.24700508 Z" id="Shape"></path>
                <path d="M54.6752792,7.01228426 C54.6752792,6.58196277 54.616599,6.17364636 54.4992386,5.78733503 C54.3818782,5.40102369 54.2131726,5.06361252 53.9931218,4.77510152 C53.7730711,4.48659052 53.5041201,4.25675973 53.186269,4.08560914 C52.8684179,3.91445854 52.5090017,3.82888325 52.1080203,3.82888325 C51.6483587,3.82888325 51.2522673,3.91934856 50.9197462,4.10027919 C50.587225,4.28120981 50.3133841,4.52815567 50.0982234,4.84111675 C49.8830626,5.15407783 49.7265821,5.51838409 49.6287817,5.93403553 C49.5309814,6.34968697 49.4918613,6.79712352 49.5114213,7.27634518 C49.5114213,7.75556684 49.5774365,8.1785533 49.709467,8.54530457 C49.8414975,8.91205584 50.0248731,9.22257191 50.2595939,9.47685279 C50.4943147,9.73113367 50.7681557,9.92428934 51.0811168,10.0563198 C51.3940778,10.1883503 51.736379,10.2543655 52.1080203,10.2543655 C52.5187817,10.2543655 52.885533,10.1712352 53.2082741,10.0049746 C53.5310152,9.83871404 53.7999662,9.61132826 54.0151269,9.32281726 C54.2302876,9.03430626 54.3941032,8.69200508 54.5065736,8.29591371 C54.619044,7.89982234 54.6752792,7.47194585 54.6752792,7.01228426 Z M54.6752792,0.278730964 L55.5554822,0.278730964 L55.5554822,10.8411675 L54.6752792,10.8411675 L54.6752792,9.50619289 L54.6459391,9.50619289 C54.5187986,9.76047377 54.3549831,9.98296954 54.1544924,10.1736802 C53.9540017,10.3643909 53.7339509,10.5233164 53.4943401,10.6504569 C53.2547293,10.7775973 53.0077834,10.8753976 52.7535025,10.9438579 C52.4992217,11.0123181 52.2498308,11.0465482 52.0053299,11.0465482 C51.3891878,11.0465482 50.865956,10.9438579 50.4356345,10.7384772 C50.005313,10.5330964 49.6507868,10.2519205 49.3720558,9.89494924 C49.0933249,9.537978 48.8903892,9.11499154 48.7632487,8.62598985 C48.6361083,8.13698816 48.5725381,7.61375635 48.5725381,7.05629442 C48.5725381,6.52817259 48.6409983,6.01961083 48.7779188,5.53060914 C48.9148393,5.04160745 49.122665,4.61373096 49.4013959,4.2469797 C49.6801269,3.88022843 50.0322081,3.58682741 50.4576396,3.36677665 C50.8830711,3.14672589 51.3842978,3.03670051 51.9613198,3.03670051 C52.4992217,3.03670051 53.0151184,3.15650592 53.5090102,3.39611675 C54.0029019,3.63572758 54.3916582,3.99025381 54.6752792,4.45969543 L54.6752792,0.278730964 Z" id="Shape"></path>
                <path d="M62.8318274,7.01228426 C62.8318274,7.47194585 62.8880626,7.89982234 63.000533,8.29591371 C63.1130034,8.69200508 63.276819,9.03430626 63.4919797,9.32281726 C63.7071404,9.61132826 63.9760914,9.83871404 64.2988325,10.0049746 C64.6215736,10.1712352 64.9883249,10.2543655 65.3990863,10.2543655 C65.7707276,10.2543655 66.1130288,10.1883503 66.4259898,10.0563198 C66.7389509,9.92428934 67.0127919,9.73113367 67.2475127,9.47685279 C67.4822335,9.22257191 67.6656091,8.91205584 67.7976396,8.54530457 C67.9296701,8.1785533 67.9956853,7.75556684 67.9956853,7.27634518 C68.0152453,6.79712352 67.9761252,6.34968697 67.8783249,5.93403553 C67.7805245,5.51838409 67.624044,5.15407783 67.4088832,4.84111675 C67.1937225,4.52815567 66.9174365,4.28120981 66.5800254,4.10027919 C66.2426142,3.91934856 65.8489679,3.82888325 65.3990863,3.82888325 C64.9981049,3.82888325 64.6386887,3.91445854 64.3208376,4.08560914 C64.0029865,4.25675973 63.7340355,4.48659052 63.5139848,4.77510152 C63.293934,5.06361252 63.1252284,5.40102369 63.007868,5.78733503 C62.8905076,6.17364636 62.8318274,6.58196277 62.8318274,7.01228426 Z M62.8318274,10.8411675 L61.9516244,10.8411675 L61.9516244,0.278730964 L62.8318274,0.278730964 L62.8318274,4.45969543 C63.1154484,3.99025381 63.5042047,3.63572758 63.9980964,3.39611675 C64.4919882,3.15650592 65.0078849,3.03670051 65.5457868,3.03670051 C66.1228088,3.03670051 66.6240355,3.14672589 67.049467,3.36677665 C67.4748985,3.58682741 67.8269797,3.88022843 68.1057107,4.2469797 C68.3844416,4.61373096 68.5922673,5.04160745 68.7291878,5.53060914 C68.8661083,6.01961083 68.9345685,6.52817259 68.9345685,7.05629442 C68.9345685,7.61375635 68.8709983,8.13698816 68.7438579,8.62598985 C68.6167174,9.11499154 68.4137817,9.537978 68.1350508,9.89494924 C67.8563198,10.2519205 67.5017936,10.5330964 67.0714721,10.7384772 C66.6411506,10.9438579 66.1179188,11.0465482 65.5017766,11.0465482 C65.2572758,11.0465482 65.0078849,11.0123181 64.7536041,10.9438579 C64.4993232,10.8753976 64.2523773,10.7775973 64.0127665,10.6504569 C63.7731557,10.5233164 63.5531049,10.3643909 63.3526142,10.1736802 C63.1521235,9.98296954 62.988308,9.76047377 62.8611675,9.50619289 L62.8318274,9.50619289 L62.8318274,10.8411675 Z" id="Shape"></path>
                <path d="M70.7536548,12.9096447 C70.8710152,12.9292047 70.9908206,12.9487648 71.1130711,12.9683249 C71.2353215,12.9878849 71.3600169,12.997665 71.4871574,12.997665 C71.7316582,12.997665 71.9321489,12.9194247 72.0886294,12.7629442 C72.24511,12.6064636 72.3746954,12.418198 72.4773858,12.1981472 C72.5800761,11.9780964 72.6656514,11.7482657 72.7341117,11.5086548 C72.8025719,11.269044 72.8808122,11.0661083 72.9688325,10.8998477 L70.0201523,3.24208122 L71.0030457,3.24208122 L73.4382741,9.77025381 L75.8735025,3.24208122 L76.8270558,3.24208122 L73.995736,10.7384772 C73.8196954,11.2176988 73.6509898,11.6480203 73.4896193,12.0294416 C73.3282487,12.4108629 73.1570981,12.7360491 72.9761675,13.005 C72.7952369,13.2739509 72.5947462,13.4793316 72.3746954,13.6211421 C72.1546447,13.7629526 71.8930288,13.8338579 71.5898477,13.8338579 C71.4333672,13.8338579 71.2842217,13.8240778 71.1424112,13.8045178 C71.0006007,13.7849577 70.8710152,13.7605076 70.7536548,13.7311675 L70.7536548,12.9096447 Z" id="Path"></path>
                <path d="M86.8467005,6.23477157 L86.8467005,5.38390863 L91.3650761,5.38390863 L91.3650761,10.8411675 L90.5142132,10.8411675 L90.5142132,9.03675127 C90.3283926,9.34971235 90.1156768,9.63577834 89.876066,9.89494924 C89.6364552,10.1541201 89.3601692,10.3741709 89.0472081,10.5551015 C88.734247,10.7360321 88.3723858,10.8753976 87.9616244,10.973198 C87.5508629,11.0709983 87.0863113,11.1198985 86.5679695,11.1198985 C85.9029272,11.1198985 85.2867851,11.0025381 84.7195431,10.7678173 C84.1523012,10.5330964 83.6632995,10.1834602 83.2525381,9.71890863 C82.8417766,9.25435702 82.5214805,8.67 82.2916497,7.96583756 C82.061819,7.26167513 81.9469036,6.44015228 81.9469036,5.50126904 C81.9469036,4.72864636 82.0447039,4.00736887 82.2403046,3.33743655 C82.4359052,2.66750423 82.7366413,2.08559222 83.1425127,1.59170051 C83.5483841,1.0978088 84.0569459,0.709052453 84.668198,0.425431472 C85.2794501,0.141810491 86.0007276,0 86.8320305,0 C87.3894924,0 87.9102792,0.0684602369 88.3943909,0.205380711 C88.8785025,0.342301184 89.313714,0.550126904 89.7000254,0.828857868 C90.0863367,1.10758883 90.4115228,1.45478003 90.6755838,1.87043147 C90.9396447,2.28608291 91.1303553,2.77752961 91.2477157,3.34477157 L90.2208122,3.34477157 C90.1327919,2.95357022 89.9836464,2.601489 89.7733756,2.28852792 C89.5631049,1.97556684 89.311269,1.71395093 89.017868,1.5036802 C88.724467,1.29340948 88.3968359,1.13203892 88.0349746,1.01956853 C87.6731134,0.907098139 87.2965821,0.850862944 86.9053807,0.850862944 C86.2109983,0.850862944 85.6144162,0.973113367 85.1156345,1.21761421 C84.6168528,1.46211506 84.2060914,1.80686125 83.8833503,2.25185279 C83.5606091,2.69684433 83.3234433,3.22985618 83.1718528,3.85088832 C83.0202623,4.47192047 82.944467,5.15407783 82.944467,5.89736041 C82.944467,6.48416244 83.0300423,7.04162437 83.2011929,7.56974619 C83.3723435,8.09786802 83.6217343,8.56241963 83.9493655,8.96340102 C84.2769966,9.3643824 84.677978,9.6822335 85.1523096,9.91695431 C85.6266413,10.1516751 86.1669882,10.2690355 86.7733503,10.2690355 C87.0569712,10.2690355 87.3503723,10.2372504 87.6535533,10.1736802 C87.9567343,10.11011 88.2501354,10.0049746 88.5337563,9.85827411 C88.8173773,9.7115736 89.0814382,9.52086294 89.3259391,9.28614213 C89.5704399,9.05142132 89.7807107,8.76291032 89.9567513,8.42060914 C90.1230118,8.08808799 90.2379272,7.74089679 90.3014975,7.37903553 C90.3650677,7.01717428 90.4017428,6.63575296 90.4115228,6.23477157 L86.8467005,6.23477157 Z" id="Path"></path>
                <polygon id="Path" points="97.0130457 5.36923858 100.196447 0.278730964 101.355381 0.278730964 97.5264975 6.23477157 97.5264975 10.8411675 96.528934 10.8411675 96.528934 6.30812183 92.758731 0.278730964 93.9029949 0.278730964"></polygon>
                <path d="M101.766142,10.8411675 L105.917766,0.278730964 L107.04736,0.278730964 L111.096294,10.8411675 L110.069391,10.8411675 L108.851777,7.52573604 L104.04,7.52573604 L102.793046,10.8411675 L101.766142,10.8411675 Z M104.377411,6.6748731 L108.514365,6.6748731 L106.445888,1.12959391 L104.377411,6.6748731 Z" id="Shape"></path>
                <polygon id="Path" points="112.519289 10.8411675 112.519289 0.278730964 113.516853 0.278730964 113.516853 9.99030457 119.179492 9.99030457 119.179492 10.8411675"></polygon>
                <path d="M119.707614,10.8411675 L123.859239,0.278730964 L124.988832,0.278730964 L129.037766,10.8411675 L128.010863,10.8411675 L126.793249,7.52573604 L121.981472,7.52573604 L120.734518,10.8411675 L119.707614,10.8411675 Z M122.318883,6.6748731 L126.455838,6.6748731 L124.38736,1.12959391 L122.318883,6.6748731 Z" id="Shape"></path>
            </g>
            <g id="Pittogramma_Gyala-Copy">
                <path d="M3.05149163,56.8169083 L3.05149163,56.8169083 C1.16493445,55.6568895 0.0119175378,53.6129576 0,51.4075853 L0,12.0312172 C0.0274522384,8.9189294 2.27435569,6.2646645 5.35406087,5.70647025 L28.3415729,0.155526565 C29.286174,-0.0518421885 30.2649041,-0.0518421885 31.2095051,0.155526565 L54.2190443,5.69041018 L54.2190443,5.69041018 C57.2854379,6.26531069 59.5139993,8.91718742 59.5378627,12.0195372 L59.5378627,51.3886052 C59.5390869,53.5924791 58.4024007,55.6427016 56.5274874,56.8183684 L56.5274874,56.8183684 L33.6001829,71.8170124 L33.6001829,71.8170124 C31.3052508,73.3943292 28.2678543,73.3943292 25.9729223,71.8170124 L25.9729223,71.8170124 L3.05149163,56.8169083 Z" id="Tracciato_1520" fill="#00D200"></path>
                <g id="Raggruppa_422" opacity="0.2" transform="translate(0.000000, 0.002225)" fill="#FFFFFF">
                    <path d="M30.8688189,0.0262815195 C30.1770942,-0.0336932783 29.4802421,0.00911672334 28.8012057,0.153302062 L5.43335853,5.71300579 C2.33242682,6.248128 0.0516372823,8.89881025 0,12.0275327 L0,51.4053608 C0.0183486506,53.6217326 1.19257655,55.6697553 3.10141979,56.8146838 L26.4178703,71.8089478 C27.7263408,72.6888824 29.2996185,73.0941113 30.8732243,72.9565127 L30.8688189,0.0262815195 Z" id="Tracciato_1521"></path>
                </g>
                <path d="M32.0127611,30.8828177 L32.0127611,44.7645569 C32.029799,44.8832162 31.9914033,45.0031155 31.9084993,45.0901383 C31.8267506,45.175506 31.7088121,45.2167636 31.5913087,45.2010988 L28.3724109,45.2010988 C28.1213016,45.2010988 27.9964812,45.0550982 27.9964812,44.7630969 L27.9964812,30.8930377 L13.2706111,15.4651519 C13.209891,15.4427393 13.1710151,15.3834213 13.1751602,15.3191513 L13.1751602,15.1731506 C13.1568004,15.0409661 13.2000486,14.9076699 13.2926382,14.8110691 C13.3840684,14.7163289 13.5158242,14.6712141 13.6465408,14.6898886 L17.880155,14.6898886 C17.9430259,14.6892124 18.000472,14.7251947 18.0270025,14.781869 L30.0038869,27.3262425 L41.936717,14.796469 C42.0271452,14.7205211 42.1451292,14.6851187 42.2627185,14.6986486 L46.45081,14.6986486 C46.7019193,14.6986486 46.8267747,14.8577893 46.8267747,15.1819107 L46.8267747,15.3279113 C46.8280907,15.3914468 46.7902382,15.4493456 46.7312888,15.4739119 L32.0127611,30.8828177 Z" id="Tracciato_1522" fill="#FFFFFF"></path>
                <rect id="Rettangolo_255" fill="#FFFFFF" x="20.4676084" y="51.5083257" width="19.010881" height="3.78287614"></rect>
            </g>
        </g>
    </g>
</svg>